<?xml version="1.0" encoding="UTF-8"?> <svg xmlns="http://www.w3.org/2000/svg" xmlns:xlink="http://www.w3.org/1999/xlink" width="559px" height="157px" viewBox="0 0 559 157" version="1.1"><title>deck13_logo</title><defs><linearGradient x1="50%" y1="0.943891979%" x2="50%" y2="100%" id="linearGradient-1"><stop stop-color="#490D05" offset="0%"></stop><stop stop-color="#440C05" offset="46.927771%"></stop><stop stop-color="#000000" offset="100%"></stop></linearGradient></defs><g id="Page-1" stroke="none" stroke-width="1" fill="none" fill-rule="evenodd"><g id="deck13_logo" fill="url(#linearGradient-1)"><path d="M198.149282,133.757564 C200.741412,137.74 203.332501,141.721385 205.922548,145.70172 C206.266084,146.228158 206.653342,146.723073 207.315428,147.643551 L207.315428,131.282989 L212,131.282989 L212,156.441688 C210.909093,157.058637 209.607378,157.170014 208.429153,156.747216 C207.250928,156.324418 206.310987,155.408639 205.850718,154.235061 C202.980637,149.821807 200.110556,145.408554 196.818863,141.067803 L196.818863,156.586695 L196.825109,156.602457 L192,156.602457 L192,131.415387 C195.603998,130.583173 196.247345,130.829055 198.149282,133.757564 Z M412,135.134868 L409.0564,138.452007 C406.696306,135.656022 403.067562,134.367778 399.535503,135.071984 C397.758532,135.564214 396.1361,136.523029 394.826964,137.854608 C392.172854,141.030383 392.085685,145.700372 394.619324,148.978816 C397.978204,153.100873 401.584419,153.066287 408.870135,148.749289 L411.84427,151.66397 C408.583391,156.110613 402.994058,158.021129 397.798046,156.465176 C392.38119,155.341853 388.395112,150.577062 388.118365,144.89449 C387.305943,138.829445 390.743406,133.011194 396.34762,130.965648 C401.893291,128.751425 408.192709,130.429359 412,135.134868 Z M360.756487,132.196173 C363.824364,140.259077 366.843155,148.344088 370,156.76071 C368.555958,156.89316 367.1021,156.860325 365.66509,156.662806 C364.948519,156.175029 364.431008,155.433228 364.210917,154.578389 C362.983766,151.555985 363.023648,151.540194 359.836124,151.540194 C358.157996,151.540194 356.46146,151.628623 354.801738,151.51177 C353.625598,151.280732 352.483626,152.052348 352.221654,153.2551 C350.749073,157.354453 350.540458,157.408143 346,156.574376 C349.040266,148.464099 351.994631,140.486468 355.065576,132.572 C355.461136,131.824814 356.183689,131.321083 357.004474,131.220287 C358.274575,131.255027 360.023265,130.272825 360.756487,132.196173 Z M41.973,37.038 C41.896,38.312 41.815,39.52 41.75,40.729 C41.6768148,42.107 41.679668,42.158037 40.3869834,42.1599273 L5.281,42.16 L5.281,151.543 C8.381,152.078 10.841,150.777 13.125,148.826 L16.655,151.276 C16.655,150.846 16.667,150.56 16.655,150.276 C16.5734428,147.829756 17.0940285,145.400929 18.171,143.203 C19.006,141.392 19.849,139.584 20.653,137.76 C21.361,136.152 21.153,135.716 19.488,135.167 C19.049,135.022 18.601,134.904 18.154,134.783 C17.733,134.668 17.309,134.565 16.828,134.441 C17.41,133.084 17.978,131.78 18.528,130.47 C19.122,129.058 19.683,127.632 20.288,126.225 C21.21,124.08 20.304,122.99 18.051,122.718 C17.2191003,122.681421 16.4704795,122.202181 16.089,121.462 C15.745,120.813 15.435,120.146 15.095,119.495 C14.755,118.844 14.395,118.206 14.048,117.567 C15.0305066,116.442994 16.6632172,116.154991 17.971,116.875 C18.783,117.266 19.633,117.583 20.479,117.899 C21.4022492,118.272237 22.4558917,118.108218 23.222,117.472 C23.8055778,117.024337 24.333051,116.507944 24.793,115.934 C25.2914284,115.236122 26.112784,114.84243 26.969,114.891 C29.6456703,114.964719 32.3057737,115.336684 34.9,116 C35.6837981,116.174891 36.283113,116.807831 36.415,117.6 C36.557,118.214 36.653,118.838 36.81,119.447 C36.8427421,119.757473 37.002033,120.040713 37.2503275,120.229962 C37.498622,120.419211 37.8139542,120.497726 38.122,120.447 C38.4241617,120.450048 38.7142711,120.328659 38.9242224,120.111331 C39.1341737,119.894003 39.245476,119.599876 39.232,119.298 C39.374,117.582 39.475,115.862 39.575,114.142 C39.716,111.709 39.844,109.275 39.975,106.842 C39.961533,106.126591 40.4032069,105.481345 41.075,105.235 C42.037,104.822 42.964,104.329 44.035,103.808 C44.035,104.123 44.044,104.358 44.035,104.591 C43.835,109.230333 43.635,113.869333 43.435,118.508 C43.418,118.886 43.435,119.268 43.389,119.642 C43.3176014,119.868534 43.3705196,120.115922 43.5283442,120.293424 C43.6861688,120.470925 43.9256702,120.552414 44.159,120.508 C44.515,120.521 44.869,120.608 45.225,120.628 C46.0757331,120.60669 46.8328854,121.164267 47.065,121.983 C47.1149525,122.254366 47.2983466,122.482262 47.5527479,122.589102 C47.8071491,122.695943 48.0982694,122.667328 48.327,122.513 C48.9086626,122.269688 49.4664038,121.97274 49.993,121.626 C54.13,118.917 58.293,116.242 62.375,113.456 C65.8570559,111.101719 69.8395954,109.590805 74.007,109.043 C76.445,108.693 78.879,108.312 81.307,107.882 C83.3751544,107.469932 85.35231,106.689164 87.144,105.577 C101.46,97.167 115.624,88.5106667 129.636,79.608 C131.115133,78.5844558 132.841863,77.976647 134.636,77.848 C135.055614,77.8119081 135.477822,77.8189449 135.896,77.869 C136.192441,77.890267 136.467661,78.0305825 136.659,78.258 C136.637903,78.5715366 136.505643,78.8672616 136.286,79.092 C136.081612,79.3040488 135.848309,79.4861794 135.593,79.633 C125.269667,86.833 114.944667,94.0276667 104.618,101.217 C102.387511,102.69191 100.791656,104.950088 100.146,107.545 C99.2217859,110.872295 96.9884399,113.682919 93.956,115.335 C91.912,116.582 89.956,117.98 87.979,119.327 C87.640371,119.577107 87.3226559,119.854355 87.029,120.156 C86.1841867,120.904516 85.8647241,122.083344 86.216,123.156 C86.4034996,123.887465 86.6510052,124.602221 86.956,125.293 C87.9967056,127.505061 88.5427134,129.917392 88.556,132.362 C88.5573213,132.467001 88.5646667,132.57184 88.578,132.676 C88.6035612,132.746278 88.6371147,132.813385 88.678,132.876 C89.118,132.506 89.554,132.162 89.965,131.791 C91.24698,130.464457 92.8986674,129.554635 94.705,129.18 C97.0032917,128.705743 99.3767648,128.732005 101.664,129.257 C102.668728,129.556144 103.609289,130.038969 104.438,130.681 C105.232542,131.214278 105.643891,132.161338 105.491283,133.106004 C105.338675,134.05067 104.650043,134.820032 103.728,135.076 C103.17218,135.255697 102.588493,135.333612 102.005,135.306 C101.447207,135.35827 100.951834,134.950447 100.896,134.393 C101.043599,133.973385 101.340466,133.622768 101.73,133.408 C102.138105,133.292153 102.428701,132.931413 102.455,132.508 C102.395087,132.05748 102.070652,131.686922 101.632,131.568 C99.6829071,130.737111 97.4207062,131.503521 96.378,133.348 C95.1367505,135.57471 95.2452274,138.308636 96.659,140.43 C97.8854666,142.622393 100.250204,143.928426 102.759,143.799 C102.864494,143.801442 102.969979,143.79374 103.074,143.776 C103.307411,143.691702 103.567116,143.724751 103.771973,143.864823 C103.976831,144.004895 104.101861,144.234909 104.108,144.483 C105.197,148.271 109.08,150.145 113.039,148.838 C113.497,148.687 113.939,148.498 114.422,148.316 C116.331,150.46 118.449,152.176 121.704,151.527 L121.704,150.666 L121.704,150.666 C121.7,131.543333 121.690333,112.42 121.675,93.296 C121.598816,92.4478776 122.03013,91.6346547 122.775,91.222 C124.132,90.387 125.426,89.447 126.83,88.495 L126.83,156.845447 L126.266,156.845447 C121.166,156.845447 116.066,156.794 110.966,156.845447 C108.447757,156.870464 106.041417,155.806206 104.366,153.926 C104.260049,153.764644 104.093744,153.652589 103.90441,153.614986 C103.715075,153.577382 103.518571,153.617379 103.359,153.726 C101.543591,154.715512 99.5621855,155.363892 97.513,155.639 C94.0952693,156.103227 90.6533754,154.974725 88.174,152.577 C87.0656798,151.586182 86.2912358,150.276579 85.957,148.828 C84.965,144.137 81.878,141.628 77.426,140.469 C75.4069088,139.829862 73.2538294,139.741143 71.189,140.212 C70.3260389,140.364895 69.5653773,140.869416 69.0888626,141.604952 C68.6123479,142.340487 68.4628106,143.240924 68.676,144.091 C69.0786645,145.418374 70.4420677,146.20571 71.793,145.891 C72.1128924,145.869887 72.3823212,145.644138 72.4591071,145.332881 C72.5358929,145.021624 72.4023703,144.696468 72.129,144.529 C72.0583646,144.483413 71.9944177,144.428217 71.939,144.365 C71.7258641,144.117636 71.587175,143.814947 71.539,143.492 C71.7329051,143.138735 72.0597271,142.877422 72.447,142.766 C74.1105065,142.445807 75.7596767,143.383645 76.335,144.977 C76.8885517,146.487559 76.6713763,148.173094 75.753,149.494 C74.6582696,151.126038 72.9337276,152.228875 70.993,152.538 C69.0356827,152.971406 66.9868076,152.645059 65.261,151.625 C64.2717619,151.066926 63.3136744,150.455352 62.391,149.793 C59.2815302,147.537356 55.3917826,146.635615 51.607,147.293 C51.107,147.366 50.607,147.454 49.987,147.556 C50.262,147.834 50.487,148.056 50.707,148.284 C52.0133284,149.504137 52.556695,151.335895 52.127,153.071 C51.9431532,153.880184 51.4583678,154.589129 50.771,155.054 C48.5104677,156.717322 45.4478364,156.77819 43.123,155.206 C42.4069655,154.689483 41.7196129,154.134326 41.064,153.543 C40.793,153.318 40.542,153.07 40.239,152.792 C38.9826506,154.547952 37.1840448,155.842358 35.12,156.476 C34.5284048,156.689658 33.9058642,156.805181 33.277,156.818 C22.233,156.836 11.1893333,156.838333 0.146,156.825 C0.104,156.825 0.062,156.833 0.02,156.837 L0.02,37.052 L0,37.052 C0.211,37.052 0.421,37.038 0.632,37.038 L41.973,37.038 Z M473,131 L473,156 L468,156 L468,131 L473,131 Z M167,131 L167,156 L163,156 L163,131 L167,131 Z M248,131 L248,135.5268 L243.361885,135.72578 L243.361885,156 L238.384319,156 L238.384319,135.700908 L234,135.700908 L234,131 L248,131 Z M445,131 L445,135.677943 L440.559415,135.677943 L440.559415,156 L435.414991,156 L435.414991,135.746598 L431,135.746598 L431,131 L445,131 Z M552.971127,131 L552.971127,135.60625 C550.520165,135.60625 548.104491,135.7 545.70165,135.578125 C543.934005,135.484375 543.885885,136.421875 543.966086,137.665625 C544.04308,138.84375 543.510541,140.265625 545.698442,140.165625 C548.088451,140.0625 550.513749,140.14375 552.987168,140.14375 L553,140.14375 L553,144.83125 C550.54583,144.83125 548.187901,144.903125 545.842805,144.80625 C545.282284,144.651831 544.680035,144.811349 544.276967,145.220994 C543.873899,145.63064 543.73582,146.22353 543.917965,146.7625 C544.017415,148.25 543.940422,149.746875 543.940422,151.45 L552.961503,151.45 L552.961503,156 L539,156 L539,131 L552.971127,131 Z M284.92761,131 L284.92761,135.601494 L276.693271,135.601494 L276.693271,140.150062 L284.987935,140.150062 L284.987935,144.79203 L276.699304,144.79203 L276.699304,151.544832 L285,151.544832 L285,156 L272,156 L272,131 L284.92761,131 Z M311,131 C314.440994,131.217608 317.832298,131.196153 321.164596,131.717185 C323.715928,132.20363 325.60746,134.336693 325.757764,136.896858 C326.444464,139.611778 325.360697,142.463139 323.034161,144.062583 C322.512422,144.424241 321.931677,144.715406 321.195652,145.138362 L321.204969,145.138362 L324.111801,150.560161 L327,155.963571 C325.398555,156.028265 323.794728,156.006779 322.195652,155.899209 C321.62962,155.626541 321.186763,155.155616 320.953416,154.578239 C319.357628,151.575809 317.610086,148.65435 315.717391,145.824898 L315.717391,155.890014 L311,155.890014 L311,131 Z M518,131.269958 C517.765597,131.95409 517.553367,132.613788 517.312629,133.264324 C514.721526,140.19421 512.111417,147.117987 509.545655,154.060089 C509.504343,154.638765 509.214642,155.174622 508.74629,155.538667 C508.277937,155.902712 507.673358,156.061969 507.078088,155.978101 C505.525961,155.782635 503.938989,156.384304 503.166093,154.087577 C500.793555,147.0172 498.09792,140.038448 495.538493,133.04137 C495.329431,132.49773 495.193224,131.957144 495,131.315771 L495.01267,131.315771 C495.143316,131.253549 495.278897,131.201464 495.418124,131.160009 C499.852775,130.827105 499.852775,130.827105 501.306707,134.785295 C502.711013,138.586704 504.111096,142.39015 505.506955,146.195631 C505.747693,146.846167 506.007437,147.484486 506.438232,148.590091 C508.265941,143.703438 509.9226,139.293233 511.569756,134.870811 C513.121884,130.695777 513.112381,130.692722 518,131.269958 Z M358.465,138.000906 L355,146 L362,146 C360.955471,143.632987 359.970033,141.40318 358.845464,138.859964 L358.465,138.000906 Z M30.479,141.723 L29.262,141.723 L29.262,142.9 L30.479,142.9 L30.479,141.723 Z M38.66,140.123 L37.065,140.123 L37.065,141.923 L38.66,141.923 L38.66,140.123 Z M316,136.060523 L316,140.963701 C319.816221,141.168388 321.056275,140.529517 320.998056,138.482649 C320.942749,136.504011 319.446534,135.7721 316,136.060523 Z M91.045,114.628 C88.2085877,115.643397 85.5514784,117.102917 83.173,118.952 C81.2663854,120.319488 80.5735082,122.832678 81.51,124.984 C82.021,126.426 82.59,127.849 83.156,129.271 C83.6397555,130.422246 83.7204504,131.703145 83.385,132.906 C82.985,134.361 82.593,135.821 82.259,137.293 C82.1983344,137.803863 82.1912961,138.319672 82.238,138.832 C82.941164,138.534655 83.4795028,137.945185 83.712,137.218 C85.6009894,133.953756 85.747472,129.965007 84.103,126.571 C83.6974871,125.672433 83.3376939,124.753926 83.025,123.819 C82.6290285,122.878707 82.8250852,121.793337 83.525,121.051 C84.2258747,120.268845 84.9861375,119.542015 85.799,118.877 C87.444,117.567 89.148,116.332 90.827,115.064 C90.991,114.941 91.146,114.806 91.395,114.604 C91.2778063,114.599147 91.1604343,114.607195 91.045,114.628 Z M28.455,135.863 C28.3094886,135.893378 28.1895634,135.995955 28.137,136.135 C28.107,136.753 28.122,137.373 28.122,138.004 L30.236,138.004 L30.236,135.85 C29.615,135.85 29.036,135.835 28.455,135.863 Z M34.885,134.988 L34.885,137.055 L34.889,137.05 C36.948,137.35 37.12,137.211 37.028,135.437 C37.0397366,135.375828 37.0366505,135.312735 37.019,135.253 C36.9561377,135.140451 36.8581427,135.051588 36.74,135 C36.123,134.977 35.505,134.988 34.885,134.988 Z M73.068,133.67 C72.0664403,134.050984 71.0453324,134.378446 70.009,134.651 C65.7446119,135.642732 61.4123042,136.315592 57.048,136.664 C55.994,136.77 54.939,136.864 53.884,136.969 C53.9481094,137.059675 54.0540789,137.11134 54.165,137.106 C58.9452444,137.15754 63.7233253,136.878206 68.465,136.27 C70.8941282,136.010082 73.2731924,135.401845 75.529,134.464 C75.955,134.268 76.359,134.024 76.934,133.715 L76.938,133.715 C76.4839923,133.659497 76.0330828,133.581063 75.587,133.48 C74.7495082,133.262108 73.8633326,133.32895 73.068,133.67 Z M43.828,134.017 L41.598,134.017 L41.598,136.094 L43.828,136.094 L43.828,134.017 Z M74.064,128.195 C70.1091658,129.753288 65.9911088,130.860293 61.788,131.495 C59.389,131.922 56.983,132.29 54.581,132.686 L54.585,132.686 L54.585,132.737 L54.585,132.737 C54.7209025,132.750645 54.8574146,132.757321 54.994,132.757011 C59.8762442,132.589213 64.7371645,132.030087 69.53,131.085 C71.9201088,130.687759 74.2275583,129.895967 76.358,128.742 C76.58,128.608 76.794,128.46 77.012,128.319 L76.958,128.144 C75.986,128.144 74.886,127.844 74.064,128.195 Z M58.298,100.197 L61.083,100.387 C60.289,103.632 59.514,106.805 58.734,109.978 C58.474,111.036 58.224,112.098 57.916,113.142 C57.826031,113.52636 57.6225531,113.874781 57.332,114.142 C56.032,115.094 54.678,115.977 53.223,116.968 C53.27,116.668 53.282,116.517 53.323,116.368 C54.6003333,111.244 55.8793333,106.120333 57.16,100.997 C57.36,100.197 57.46,100.137 58.298,100.197 Z M423.653903,37.0092626 C428.875961,37.1217612 434.0856,37.0467621 439.857185,37.0467621 L439.863394,37.0467621 L410.288291,73.2025858 L440,110.858392 C439.0034,110.920891 438.388675,110.992765 437.770846,110.992765 C432.66987,110.992765 427.565789,110.924016 422.464814,110.992765 C421.022498,111.079382 419.644207,110.383349 418.850976,109.167787 C410.522176,98.2095826 402.16233,87.2722116 393.771437,76.3556736 C393.392667,75.8619295 392.970432,75.3994349 392.290509,74.5931944 L392.290509,110.717768 L377,110.717768 L377,37.2686345 L392.212892,37.2686345 L392.212892,72.4588446 C394.820816,69.287007 397.053075,66.5870388 399.269811,63.8745708 C406.022472,55.5965434 412.796866,47.3310159 419.499852,39.0123639 C420.445584,37.6645851 422.017757,36.9064768 423.653903,37.0092626 Z M201.315192,37.3351273 C217.06239,37.9934902 226.449488,46.3275524 229.6249,61.8848845 C231.604662,70.8869189 231.444673,80.2340323 229.158018,89.1616992 C225.886757,101.389775 217.186067,109.443019 204.6452,110.241791 C190.87993,111.093606 177.049728,110.790946 163,111 L163,37.2508818 C163.184891,37.1441569 163.3852,37.0673014 163.59365,37.023107 C176.165436,37.0855111 188.752682,36.7953322 201.315192,37.3351273 Z M363.349771,37.0560535 C363.861805,37.065432 364.367669,37.1404597 364.993831,37.1904782 L365,37.1904782 L365,49.7857601 L362.560129,49.7857601 C355.086289,49.7857601 347.612449,49.6763446 340.141694,49.845157 C329.823908,50.0796187 325.215606,53.9091596 323.071851,64.0504091 C321.676562,70.6885913 321.518591,77.5327002 322.606085,84.229745 C324.176116,93.9708466 328.775165,97.8410275 338.704298,98.0348491 C346.693256,98.1911569 354.691468,98.0973723 362.683511,98.113003 L364.950647,98.113003 L364.950647,110.786439 C364.630714,110.883345 364.302184,110.948262 363.969764,110.98026 C353.574865,110.917737 343.161458,111.199091 332.788151,110.667645 C320.203319,110.503515 309.41763,101.507 306.837918,89.0221419 C304.051299,78.2096375 304.440453,66.80777 307.957606,56.2162626 C311.099586,45.8823609 320.197127,38.5772215 330.841806,37.8407186 C336.915891,37.2532202 343.016356,36.9913003 349.117705,37.0560535 C353.858642,36.9435119 358.605749,37.0310443 363.349771,37.0560535 Z M535.46662,37.1398284 C539.403687,37.240463 543.312663,37.8339216 547.102309,38.9063528 C553.769157,40.6569122 558.487715,46.5902185 558.694244,53.4825235 C559.783687,60.8898652 556.648441,68.2859467 550.568326,72.6516575 C550.11515,73.0112155 549.680726,73.3957863 549.155666,73.8397623 C549.655723,74.2180799 550.043267,74.5682582 550.483941,74.8402717 C557.531613,79.1643481 559.572468,85.8396214 558.869264,93.5122776 C557.959786,103.457966 551.418422,109.695516 541.142261,110.630367 C537.28245,110.980546 533.385135,110.961786 529.503446,110.980546 C520.083632,111.024318 510.663818,110.980546 501.244004,110.980546 L499,110.980546 L499,98.3241023 L501.256505,98.3241023 C511.332643,98.259486 521.408782,98.1865322 531.48492,98.1052409 C532.405159,98.0600528 533.318881,97.926029 534.213353,97.7050371 C537.141221,97.2998409 539.655778,95.4185163 540.871748,92.7234028 C542.087717,90.0282893 541.834608,86.8972711 540.20153,84.4326552 C538.942161,82.2817609 536.688787,80.9057185 534.200852,80.7682896 C531.190537,80.4422708 528.165217,80.2742468 525.137328,80.2649084 C519.142901,80.1929968 513.148473,80.2430222 507.154046,80.2430222 L504.872538,80.2430222 L504.872538,67.5834522 L509.673081,67.5834522 C516.917649,67.5052875 524.159092,67.4333758 531.403661,67.3270717 C532.192548,67.2895206 532.976227,67.1785688 533.74455,66.995653 C536.425415,66.7374126 538.811917,65.1874286 540.138757,62.8427492 C541.465596,60.4980698 541.566012,57.6533782 540.407803,55.2209085 C539.006273,51.8957958 535.67156,49.8063978 532.069361,49.9963737 C529.71597,49.7618793 527.331326,49.7743857 524.962308,49.7681325 C517.123923,49.7431198 509.285537,49.7681325 501.447151,49.7681325 L499,49.7681325 L499,37.1460816 C499.709455,37.1085625 500.397033,37.0366509 501.087736,37.0366509 C512.548406,37.0366509 524.012201,36.9053341 535.46662,37.1398284 Z M72.409,89.6669827 C74.145,89.665 75.884,89.837 77.721,89.934 L77.725,89.938 C76.288,97.138 72.244,102.228 65.998,105.881 C66.115,105.523 66.192,105.294 66.265,105.064 C66.8692513,103.424637 66.2880983,101.584114 64.852,100.589 C63.195071,99.4421474 61.2250756,98.8335508 59.21,98.846 C54.965468,98.7475746 50.7471392,99.5364038 46.825,101.162 C41.42612,103.260586 36.3222168,106.050523 31.641,109.462 L30.523,110.251 C30.583,110 30.61,109.862 30.65,109.729 C31.439,107.076 32.25,104.429 33.007,101.767 C33.1596679,101.089605 33.6373185,100.531473 34.283,100.276 C41.6828739,96.8764053 49.3534775,94.1001097 57.215,91.976 C62.16256,90.5711158 67.2674458,89.7953371 72.409,89.6669827 Z M487,37 L487,110 L471,110 L471,37 L487,37 Z M294.94624,37.0333471 L296.962995,37.0333471 L296.962995,49.8113196 L294.804389,49.8113196 C287.070412,49.8113196 279.336435,49.8113196 271.602457,49.8483393 C269.913812,49.8376688 268.228509,49.9999619 266.572905,50.3326806 C260.943058,51.2471326 256.497529,55.6067569 255.471502,61.2195625 C255.061367,62.9101296 254.811585,64.6377164 254.444622,66.6953957 L296.925991,66.6953957 L296.925991,79.3437992 L254.444622,79.3437992 C254.416367,82.9951752 255.101451,86.6169026 256.461377,90.0054778 C257.982966,93.4028853 261.113087,95.8047804 264.787429,96.394464 C267.536509,96.8898007 270.320669,97.165235 273.113481,97.2181527 C280.32631,97.3322969 287.539138,97.2644274 294.75505,97.2705973 L297,97.2705973 L297,109.733902 C296.807144,109.838755 296.599029,109.912666 296.383255,109.952936 C285.858509,109.903576 275.31526,110.215159 264.815183,109.687628 C252.085039,109.5301 241.206453,100.47101 238.742305,87.9755633 C236.100386,77.5363102 236.469261,66.5618332 239.806189,56.3237049 C243.37714,45.2177897 251.555174,39.3347396 262.829265,37.8138462 C268.25253,37.2557766 273.702888,37.003438 279.154495,37.058027 C284.41841,36.9438828 289.682325,37.0333471 294.94624,37.0333471 Z M89.83,52.338 C91.578,52.575 93.3,53.003 95.03,53.359 C96.0203206,53.5831742 96.9112243,54.1224885 97.569,54.896 C101.388737,58.8751564 104.064688,63.8107752 105.315,69.183 C106.662184,75.076292 105.570147,81.2639046 102.287,86.34 C99.2637409,91.0762465 95.2714369,95.1183094 90.573,98.2 C88.461,99.654 86.255,100.974 84.09,102.351 L83.8397373,102.472667 L83.8397373,102.472667 L83.591,102.575906 L83.8214907,102.146329 C84.2043611,101.433944 84.5495,100.793667 84.887,100.152 C85.6368848,98.8784715 86.0380133,97.429856 86.05,95.952 C86.0306471,93.7124644 84.8252727,91.6511104 82.883,90.536 C80.9598149,89.3884314 78.8012737,88.6922822 76.57,88.5 C71.2937652,88.0227041 65.9748735,88.428262 60.832,89.7 C50.408,91.958 40.559,95.83 30.921,100.294 C29.9698686,100.754116 28.9948094,101.163033 28,101.519 C28.185,101.354 28.361,101.177 28.555,101.019 C34.0696981,96.7935743 39.2479321,92.1462697 44.043,87.119 C47.0679296,84.0377722 49.5903118,80.5007006 51.518,76.637 C52.5912085,74.5365007 53.2331497,72.2424448 53.406,69.89 C53.4681341,68.759518 53.3885152,67.625704 53.169,66.515 C52.5995276,63.7555995 50.2670958,61.7098215 47.457,61.505 C45.2077985,61.3264254 42.9445737,61.477352 40.739,61.953 C39.603,62.131 38.477,62.367 37.295,62.446 C38.786,61.687 40.262,60.898 41.769,60.173 C49.8002447,56.3014765 58.3843211,53.7014578 67.214,52.466 C74.7106887,51.3805481 82.3215052,51.3374731 89.83,52.338 Z M178.367862,50.0605279 C178.22939,50.1133905 178.10391,50.195682 178,50.301776 L178,97.8495783 C185.369716,97.8495783 192.652143,98.2506141 199.89716,97.7430532 C207.659678,97.1978952 211.219837,93.7295625 212.775458,86.1944765 C214.384758,78.3008551 214.408076,70.1635939 212.844043,62.2607877 C211.344536,54.496986 207.665913,50.9189951 199.825458,50.3174415 C192.708257,49.7722835 185.522472,50.1043912 178.367862,50.0605279 Z M52.007,67.802 C52.1904518,70.6892876 51.5782309,73.571568 50.237,76.135 C48.5522872,79.5303879 46.3672581,82.6535434 43.755,85.4 C40.8802082,88.5608635 37.8052013,91.5336597 34.549,94.3 C34.4856667,94.3506667 34.4192222,94.3968889 34.347,94.4478519 L34.237,94.5269056 L34.1284805,93.738668 C33.884875,91.8895469 33.71075,90.071625 33.31,88.305 C31.71,81.234 25.845,78.787 20.339,79.236 C18.474,79.389 16.619,79.677 14.759,79.902 C14.574,79.924 14.386,79.932 14.082,79.957 C14.1672705,79.8660953 14.2602879,79.7827812 14.36,79.708 C20.5289302,76.2594494 26.8933601,73.1728962 33.421,70.464 C38.8613632,68.3502504 44.5688468,67.0020471 50.38,66.458 C51.804,66.313 51.854,66.371 52.007,67.802 Z M99.961,54.972 C111.84,58.765 121.581,65.656 130.568,73.953 L130.572,73.957 C129.356,74.169 128.224,74.3 127.126,74.569 C123.216262,75.579203 119.613352,77.53138 116.632,80.255 C114.832,81.836 113.213,83.612 111.519,85.306 C111.357231,85.4905084 111.208853,85.6863404 111.075,85.892 L110.943,85.777 C110.994,84.677 111.087,83.577 111.087,82.477 C110.956052,77.6976443 109.79638,73.0026767 107.687,68.712 C105.641953,64.3115814 103.277292,60.0668887 100.612,56.012 C100.423,55.717 100.239,55.418 99.961,54.972 Z M126.923,75.836 C126.923,76.779 126.939,77.625 126.91,78.468 C126.876863,78.6521157 126.76804,78.8138995 126.61,78.914 C125.052,79.901 123.481,80.871 121.91,81.842 C121.84258,81.8537155 121.773735,81.854728 121.706,81.845 L121.71,81.845 C121.71,80.766 121.693,79.722 121.726,78.68 C121.75132,78.4566102 121.876295,78.2566494 122.066,78.136 C123.644,77.366 125.238,76.629 126.923,75.836 Z M126.831,37.067 L126.823,37.068 L126.823,68.682 C126.6,68.527 126.43,68.42 126.272,68.297 C125.009,67.317 123.772,66.297 122.472,65.366 C121.928824,64.9956616 121.627899,64.3609278 121.685,63.706 C121.7,61.312 121.685,58.917 121.685,56.523 L121.685,42.2 L120.785,42.2 C118.931,42.2 117.077,42.212 115.224,42.185 C114.980223,42.1687409 114.758147,42.0391969 114.624,41.835 C114.041,40.335 113.504,38.806 112.957,37.287 C112.946484,37.2140437 112.946484,37.1399563 112.957,37.067 L126.831,37.067 Z M46.046,62.666 L46.039,62.671 C45.987,63.603 45.951,64.476 45.877,65.346 C45.8311106,65.5008128 45.7123182,65.6233408 45.559,65.674 C44.602,65.882 43.638,66.059 42.572,66.266 C42.672,65.191 42.738,64.215 42.857,63.244 C42.9236436,63.0611632 43.0776787,62.9240344 43.267,62.879 C44.166,62.78 45.064,62.734 46.046,62.666 Z M46.6504396,33.2003476 C46.9863046,33.4210767 47.1766191,33.8061165 47.148,34.207 C47.2603045,35.2718078 47.3083915,36.3424117 47.292,37.413 C47.136,41.421 46.928,45.427 46.732,49.433 C46.632,51.533 46.5,53.626 46.415,55.724 C46.4598531,56.2847178 46.1107952,56.8018714 45.574,56.97 C44.793,57.256 44.032,57.605 43.171,57.967 C43.258,56.361 43.337,54.859 43.421,53.358 C43.659,49.123 43.871,44.887 44.149,40.658 C44.291,38.505 44.524,36.358 44.792,34.215 C44.8840502,33.7733268 45.1495777,33.3871049 45.529,33.143 C45.8856292,32.9576833 46.3145746,32.9796185 46.6504396,33.2003476 Z M101.342,32.407 C102.865572,32.5932453 104.366066,32.9350282 105.82,33.427 C109.530596,34.6415744 112.280445,37.787328 112.988,41.627 C113.365121,43.7325923 113.063988,45.9035487 112.128,47.827 C110.838513,50.6470814 108.969633,53.1640211 106.643,55.214 C106.364846,55.4132545 106.015523,55.4858789 105.681,55.414 C105.104385,55.2421644 104.540922,55.028944 103.995,54.776 C104.115,54.204 104.26,53.662 104.339,53.11 C104.797,49.922 103.254,47.721 100.099,47.02 C97.7746729,46.5799657 95.386613,46.6000106 93.07,47.079 C89.6786745,47.7158185 86.3496264,48.6483803 83.121,49.866 C82.4694722,50.0942593 81.78333,50.2079396 81.093,50.202 C76.8181507,50.1030874 72.5415363,50.2962033 68.293,50.78 C68.1155787,50.7899971 67.9378718,50.7931811 67.7602715,50.7895524 L67.498,50.7789056 L67.5162559,50.3895401 C67.5275086,49.9958799 67.5177527,49.601806 67.487,49.209 C67.2686269,47.85033 66.373046,46.6965534 65.111,46.148 C63.627344,45.3786194 61.9903813,44.9508429 60.32,44.896 C56.955,44.812 53.586,44.887 50.22,44.896 C49.9573279,44.911271 49.6942385,44.8742209 49.446,44.787 C49.723,44.622 49.995,44.447 50.279,44.293 C62.2313364,38.1770742 75.1634792,34.2042538 88.488,32.555 C92.7483436,31.9513934 97.0688879,31.901647 101.342,32.407 Z M65.432,26.823 C66.4839362,27.0145677 67.266746,27.9032969 67.324,28.971 C67.4424581,30.7638771 67.2870649,32.5633751 66.8640102,34.3076918 L66.741,34.7809056 L66.2208737,34.5502305 C65.518964,34.251676 64.7997388,33.9951258 64.067,33.782 C62.8661146,33.6180689 61.64507,33.8647446 60.602,34.482 C58.3753995,35.6446983 56.3880118,37.2168312 54.744,39.116 C53.226,40.747 51.444,40.938 49.364,40.416 C51.004,37.9 50.584,35.534 48.833,33.224 C49.487,33.124 50.044,33.062 50.592,32.955 C52.2491948,32.6185702 53.8013748,31.889121 55.118,30.828 C56.195,29.984 57.233,29.09 58.332,28.277 C60.3308279,26.6866486 62.9689252,26.1463959 65.432,26.823 Z M85.687,1.001 C86.0154712,0.99009777 86.3256902,1.15190281 86.5047227,1.4275105 C86.6837552,1.70311818 86.7054844,2.05232376 86.562,2.348 C83.98,8.614 83.133,15.348 81.244,21.805 C80.903,22.969 80.669,24.164 80.371,25.405 C80.848,25.541 81.289,25.655 81.722,25.795 C82.0646247,25.8953073 82.3989593,26.0220201 82.722,26.174 C83.180352,26.3329214 83.550918,26.6769896 83.7433467,27.1223139 C83.9357755,27.5676382 83.9323843,28.0732967 83.734,28.516 C83.2910848,29.6246155 82.7832039,30.706158 82.213,31.755 C82.057562,31.976501 81.823161,32.1300247 81.558,32.184 C78.385,32.93 75.206,33.652 72.028,34.3773155 C71.9402043,34.3791747 71.8524913,34.370101 71.767,34.35 L71.769,34.35 C71.676,33.384 71.523,32.411 71.503,31.435 C71.4718053,30.177117 71.5051826,28.9184618 71.603,27.664 C71.6405571,26.4723025 72.5335096,25.482106 73.715,25.322 C74.5422368,25.1721594 75.3766923,25.0653491 76.215,25.002 C76.5126739,25.0190392 76.7709753,24.7986455 76.801,24.502 C78.491,17.66 80.201,10.825 81.883,3.98 C81.9415742,3.61641108 81.8708017,3.2437939 81.683,2.927 C81.047,1.827 81.283,1.184 82.541,1.046 C83.5868883,0.948976773 84.6387645,0.933930864 85.687,1.001 Z M125.6,8.434 C127.329213,9.29606954 128.716276,10.7173156 129.536,12.467 C130.091586,13.558673 130.082638,14.8521187 129.512,15.936 C128.458,17.867 127.312,19.746 126.224,21.661 C125.993938,21.9665842 125.883348,22.3456457 125.913,22.727 C126.162627,23.0112315 126.515411,23.1840239 126.893,23.207 C128.928,23.539 130.861,22.907 132.808,22.488 C135.399,21.929 137.978,21.318 140.563,20.731 C140.674,20.7 140.8,20.688 140.994,20.657 L140.998,20.661 C140.781,21.271 140.589,21.816 140.398,22.361 C139.509,24.851 138.609,27.336 137.738,29.831 C137.588542,30.3774829 137.114427,30.7729775 136.55,30.822 C133.813,31.388 131.098,32.06 128.377,32.702 C126.172113,33.3342768 123.820758,33.2264391 121.683,32.395 C120.97192,32.084117 120.310226,31.6707268 119.719,31.168 C118.548766,30.3247444 118.208826,28.731437 118.933,27.484 C119.448468,26.4749509 120.015896,25.4933005 120.633,24.543 C121.096,23.792 121.623,23.081 122.096,22.336 C122.357885,22.0494518 122.489037,21.6670309 122.458133,21.2800702 C122.42723,20.8931095 122.237045,20.5363515 121.933,20.295 C120.051812,18.1399399 117.36189,16.8605074 114.503,16.761 C111.361118,16.7106981 108.231267,17.1610024 105.231,18.095 C102.341,18.847 99.456,19.617 96.557,20.327 C92.594,21.298 89.071,20.169 85.793,17.977 C85.7540107,17.9292727 85.7229477,17.8755878 85.701,17.818 C86.001,17.651 86.301,17.458 86.615,17.318 C89.0473953,16.3344403 90.5323389,13.8568132 90.253,11.248 C90.1309618,9.70340031 89.9175885,8.16737998 89.614,6.648 C89.574,6.383 89.481,6.127 89.385,5.76 C89.624,5.892 89.779,5.968 89.925,6.06 C90.192,6.228 90.467,6.387 90.716,6.579 C93.0446688,8.32471947 96.0313964,8.93900836 98.86,8.254 C102.874,7.515 106.889,6.774 110.914,6.1 C115.93223,5.1781138 121.114829,6.00176811 125.6,8.434 Z M79.418,28.321 C79.0752928,28.9936577 78.7957605,29.6966731 78.583,30.421 C78.406,30.966 78.703,31.221 79.265,31.061 C80.2169846,30.6578314 80.9009892,29.8089956 81.0981285,28.8031723 L81.13,28.6009056 L80.9998538,28.4498788 C80.8136026,28.252813 80.593298,28.0901416 80.349,27.97 C79.9993478,27.9226499 79.6493636,28.0545989 79.418,28.321 Z M74.313,27.441 C74.0460211,27.4070641 73.7784572,27.4993269 73.589138,27.6906059 C73.3998189,27.8818848 73.3103165,28.1503847 73.347,28.417 C73.3,28.769 73.274,29.123 73.24,29.476 L73.242,29.476 C73.2348555,29.7687629 73.2729715,30.0608729 73.355,30.342 C73.4680474,30.6623779 73.6937369,30.9307174 73.99,31.097 C74.312109,31.1202436 74.6227387,30.9725236 74.808,30.708 C75.1267879,29.9730648 75.3399034,29.1966917 75.441,28.402 C75.4653942,28.1092077 75.3472375,27.8225949 75.12359,27.6320583 C74.8999425,27.4415217 74.5981982,27.3703997 74.313,27.441 Z" id="Combined-Shape"></path></g></g></svg> 