<svg xmlns="http://www.w3.org/2000/svg" viewBox="0 0 40.46 48.89"><defs><style>.cls-1{fill:#fff;}</style></defs><title>資產 1</title><g id="圖層_2" data-name="圖層 2"><g id="圖層_1-2" data-name="圖層 1"><path class="cls-1" d="M5.86,46a1.24,1.24,0,0,0-.42-1,4.28,4.28,0,0,0-1.5-.7A8.43,8.43,0,0,1,1.17,43a2.47,2.47,0,0,1-.95-2,2.54,2.54,0,0,1,1.07-2.12A4.32,4.32,0,0,1,4,38a4.3,4.3,0,0,1,2.83.89,2.75,2.75,0,0,1,1,2.32v.05H5.8a1.57,1.57,0,0,0-.47-1.22A2,2,0,0,0,4,39.62,1.77,1.77,0,0,0,2.77,40a1.23,1.23,0,0,0-.43,1,1,1,0,0,0,.46.88,6.39,6.39,0,0,0,1.61.73,6.94,6.94,0,0,1,2.66,1.29A2.64,2.64,0,0,1,8,46a2.53,2.53,0,0,1-1.06,2.14,4.6,4.6,0,0,1-2.8.78A5,5,0,0,1,1.19,48,2.79,2.79,0,0,1,0,45.51l0,0H2.07a1.64,1.64,0,0,0,.55,1.38,2.31,2.31,0,0,0,1.5.45,2,2,0,0,0,1.3-.36A1.17,1.17,0,0,0,5.86,46Z"/><path class="cls-1" d="M13.41,47.27a1.18,1.18,0,0,0,.88-.33,1.22,1.22,0,0,0,.33-.89h1.93v.05a2.46,2.46,0,0,1-.88,2,3.35,3.35,0,0,1-2.27.8,3.34,3.34,0,0,1-2.69-1.11,4.23,4.23,0,0,1-1-2.85v-.22a4.28,4.28,0,0,1,.94-2.85,3.33,3.33,0,0,1,2.69-1.12,3.22,3.22,0,0,1,2.31.82,2.77,2.77,0,0,1,.85,2.18v0H14.62a1.56,1.56,0,0,0-.33-1,1.06,1.06,0,0,0-.89-.4,1.21,1.21,0,0,0-1.17.66,3.61,3.61,0,0,0-.34,1.68v.22a3.6,3.6,0,0,0,.34,1.69A1.24,1.24,0,0,0,13.41,47.27Z"/><path class="cls-1" d="M22.68,42.7l-.78,0a1.41,1.41,0,0,0-.78.2,1.19,1.19,0,0,0-.46.55v5.31H18.54V40.88h2l.1,1.16a2.46,2.46,0,0,1,.71-1,1.58,1.58,0,0,1,1-.34,1.42,1.42,0,0,1,.3,0l.27.06Z"/><path class="cls-1" d="M24.05,44.74a4.24,4.24,0,0,1,1-2.88,3.42,3.42,0,0,1,2.72-1.12,3.47,3.47,0,0,1,2.73,1.11,4.21,4.21,0,0,1,1,2.89v.15a4.21,4.21,0,0,1-1,2.89,3.43,3.43,0,0,1-2.72,1.11A3.43,3.43,0,0,1,25,47.78a4.21,4.21,0,0,1-1-2.89Zm2.11.15a3.47,3.47,0,0,0,.38,1.73,1.31,1.31,0,0,0,1.22.65,1.28,1.28,0,0,0,1.2-.66,3.32,3.32,0,0,0,.39-1.72v-.15A3.33,3.33,0,0,0,29,43a1.3,1.3,0,0,0-1.21-.66,1.28,1.28,0,0,0-1.2.66,3.38,3.38,0,0,0-.39,1.71Z"/><path class="cls-1" d="M35.75,48.74H33.63V37.41h2.12Z"/><path class="cls-1" d="M40.46,48.74H38.34V37.41h2.12Z"/><path class="cls-1" d="M20.76,31.37a1.5,1.5,0,0,1-1.06-.44L5.42,16.66a1.5,1.5,0,1,1,2.12-2.13L20.76,27.75,34,14.53a1.5,1.5,0,1,1,2.12,2.13L21.82,30.93A1.5,1.5,0,0,1,20.76,31.37Z"/><path class="cls-1" d="M20.76,17.28a1.49,1.49,0,0,1-1.06-.44L5.42,2.56A1.5,1.5,0,0,1,7.54.44L20.76,13.66,34,.44a1.5,1.5,0,0,1,2.12,2.12L21.82,16.84A1.53,1.53,0,0,1,20.76,17.28Z"/></g></g></svg>